<svg width="32" height="32" viewBox="0 0 32 32" fill="none" xmlns="http://www.w3.org/2000/svg">
<path d="M16 4C22.6 4 28 9.4 28 16C28 22.6 22.6 28 16 28C9.4 28 4 22.6 4 16C4 9.4 9.4 4 16 4ZM16 2C8.3 2 2 8.3 2 16C2 23.7 8.3 30 16 30C23.7 30 30 23.7 30 16C30 8.3 23.7 2 16 2Z" fill="black"/>
<path d="M24 16C24 15.4477 23.5523 15 23 15H17V9C17 8.44772 16.5523 8 16 8C15.4477 8 15 8.44772 15 9V15H9C8.44772 15 8 15.4477 8 16C8 16.5523 8.44772 17 9 17H15V23C15 23.5523 15.4477 24 16 24C16.5523 24 17 23.5523 17 23V17H23C23.5523 17 24 16.5523 24 16Z" fill="black"/>
</svg>
