<svg width="80" height="80" viewBox="0 0 80 80" fill="none" xmlns="http://www.w3.org/2000/svg">
<g clip-path="url(#clip0_2_116)">
<path d="M8.75198 23.277L23.7563 23.277V29.1024C23.7563 30.1741 24.9318 30.831 25.8479 30.2606L44.8972 18.4023C45.7615 17.8665 45.7615 16.6046 44.8972 16.0687L25.8479 4.21045C24.9318 3.64001 23.7563 4.29688 23.7563 5.36861V11.194L-20.1849 11.194C-21.1875 11.194 -22 12.0065 -22 13.0091V21.4447C-22 22.4473 -21.1875 23.2597 -20.2022 23.2597C-13.7202 23.277 -9.76905 23.277 -4.22021 23.277C1.31133 23.277 4.77979 23.2597 8.75198 23.277Z" fill="#3BC1AE"/>
<path d="M42.752 46.277H57.7563V52.1024C57.7563 53.1741 58.9318 53.831 59.8479 53.2606L78.8972 41.4023C79.7615 40.8665 79.7615 39.6046 78.8972 39.0687L59.8479 27.2104C58.9318 26.64 57.7563 27.2969 57.7563 28.3686V34.194L13.8151 34.194C12.8125 34.194 12 35.0065 12 36.0091V44.4447C12 45.4473 12.8125 46.2597 13.7978 46.2597C20.2798 46.277 24.231 46.277 29.7798 46.277C35.3113 46.277 38.7798 46.2597 42.752 46.277Z" fill="#3BC1AE"/>
<path d="M8.75198 68.277H23.7563V74.1024C23.7563 75.1741 24.9318 75.831 25.8479 75.2606L44.8972 63.4023C45.7615 62.8665 45.7615 61.6046 44.8972 61.0687L25.8479 49.2104C24.9318 48.64 23.7563 49.2969 23.7563 50.3686V56.194L-20.1849 56.194C-21.1875 56.194 -22 57.0065 -22 58.0091V66.4447C-22 67.4473 -21.1875 68.2597 -20.2022 68.2597C-13.7202 68.277 -9.76905 68.277 -4.22021 68.277C1.31133 68.277 4.77979 68.2597 8.75198 68.277Z" fill="#3BC1AE"/>
</g>
<defs>
<clipPath id="clip0_2_116">
<rect width="80" height="80" fill="white"/>
</clipPath>
</defs>
</svg>
