<svg width="80" height="80" viewBox="0 0 80 80" fill="none" xmlns="http://www.w3.org/2000/svg">
<g clip-path="url(#clip0_2_106)">
<path d="M10.2506 47.2295H1.81504C0.812446 47.2295 0 48.0419 0 49.0445V52.5536V67.9555V71.4646C0 72.4672 0.812446 73.2796 1.81504 73.2796H10.2506C11.2532 73.2796 12.0657 72.4672 12.0657 71.4646V67.9555V52.5536V49.0445C12.0657 48.0419 11.2532 47.2295 10.2506 47.2295Z" fill="#3BC1AE"/>
<path d="M24.2506 37H15.815C14.8124 37 14 37.8124 14 38.815V52.4019V57.726V71.3129C14 72.3155 14.8124 73.1279 15.815 73.1279H24.2506C25.2532 73.1279 26.0657 72.3155 26.0657 71.3129V57.726V52.4019V38.815C26.0657 37.8124 25.2532 37 24.2506 37Z" fill="#3BC1AE"/>
<path d="M34.071 36.4864V51.4907H28.2456C27.1739 51.4907 26.517 52.6661 27.0874 53.5823L38.9457 72.6316C39.4816 73.4959 40.7435 73.4959 41.2793 72.6316L53.1376 53.5823C53.708 52.6661 53.0511 51.4907 51.9794 51.4907H46.154L46.154 7.54945C46.154 6.54685 45.3416 5.73441 44.339 5.73441H35.9034C34.9008 5.73441 34.0883 6.54685 34.0883 7.53216C34.071 14.0142 34.071 17.9653 34.071 23.5142C34.071 29.0457 34.0883 32.5142 34.071 36.4864Z" fill="#3BC1AE"/>
<path d="M66.3679 47C58.8352 47 52.7354 53.0999 52.7354 60.6326C52.7354 68.1653 58.8352 74.2651 66.3679 74.2651C73.9006 74.2651 80.0005 68.1653 80.0005 60.6326C80.0005 53.0999 73.9006 47 66.3679 47ZM70.2844 66.0228C69.684 66.7461 68.9198 67.2373 68.0055 67.483C67.6097 67.5921 67.4323 67.7968 67.4596 68.2062C67.4733 68.602 67.4596 69.0113 67.4596 69.4207C67.4596 69.7755 67.2822 69.9666 66.9274 69.9802C66.4907 69.9939 66.0541 69.9939 65.631 69.9802C65.2489 69.9666 65.0715 69.7619 65.0715 69.3934C65.0715 69.0932 65.0715 68.8066 65.0579 68.5064C65.0579 67.8514 65.0306 67.8241 64.4029 67.7286C63.5977 67.6058 62.8199 67.4147 62.083 67.0599C61.5099 66.787 61.4553 66.6369 61.619 66.0365C61.7419 65.5861 61.8647 65.1358 62.0011 64.6991C62.1649 64.1806 62.3013 64.126 62.779 64.3716C63.5841 64.7947 64.4438 65.0266 65.3445 65.1358C65.9312 65.2041 66.4907 65.1495 67.0229 64.9175C68.0191 64.4808 68.1829 63.3209 67.3368 62.6249C67.0502 62.3929 66.7227 62.2155 66.3816 62.0654C65.5082 61.6833 64.5803 61.3831 63.7615 60.8918C62.4105 60.0867 61.5645 58.9814 61.66 57.3438C61.7691 55.4879 62.8199 54.328 64.5257 53.7139C65.2216 53.4547 65.2353 53.4683 65.2353 52.7314C65.2353 52.4858 65.2353 52.2401 65.2353 51.9945C65.2489 51.435 65.3445 51.3531 65.8903 51.3258C66.0541 51.3258 66.2315 51.3258 66.3952 51.3258C67.5688 51.3258 67.5688 51.3259 67.5688 52.4994C67.5688 53.3318 67.5688 53.3318 68.4012 53.4547C69.0289 53.5502 69.643 53.7412 70.2162 54.0005C70.5437 54.137 70.6665 54.369 70.5573 54.7101C70.4072 55.215 70.2707 55.7199 70.107 56.2248C69.9569 56.7025 69.8068 56.7707 69.3428 56.5524C68.4285 56.1157 67.4733 55.9246 66.4634 55.9792C66.2042 55.9929 65.9449 56.0338 65.6993 56.143C64.8259 56.5251 64.6894 57.4939 65.4263 58.0807C65.8084 58.3809 66.2315 58.5993 66.6818 58.7903C67.4596 59.1042 68.2375 59.4181 68.9607 59.8274C71.2942 61.0829 71.9219 64.0168 70.2844 66.0228Z" fill="#3BC1AE"/>
</g>
<defs>
<clipPath id="clip0_2_106">
<rect width="80" height="80" fill="white"/>
</clipPath>
</defs>
</svg>
