<svg width="60" height="60" viewBox="0 0 60 60" fill="none" xmlns="http://www.w3.org/2000/svg">
<path fill-rule="evenodd" clip-rule="evenodd" d="M8.125 25.0745C8.125 18.3233 14.0479 13.125 21 13.125C24.5837 13.125 27.7371 14.8053 30 16.9796C32.2629 14.8053 35.4163 13.125 39 13.125C45.9521 13.125 51.875 18.3233 51.875 25.0745C51.875 29.6992 49.9028 33.7661 47.1705 37.2038C44.4428 40.6356 40.8749 43.5482 37.4587 45.9149C36.1538 46.8189 34.8338 47.6528 33.6257 48.268C32.4913 48.8458 31.1869 49.375 30 49.375C28.8131 49.375 27.5087 48.8458 26.3743 48.268C25.1662 47.6528 23.8462 46.8189 22.5413 45.9149C19.1251 43.5482 15.5572 40.6357 12.8296 37.2038C10.0972 33.7661 8.125 29.6992 8.125 25.0745ZM21 16.875C15.8019 16.875 11.875 20.6977 11.875 25.0745C11.875 28.5832 13.3645 31.85 15.7652 34.8705C18.1707 37.897 21.4073 40.5673 24.6769 42.8324C25.914 43.6895 27.0794 44.4188 28.0761 44.9264C29.1466 45.4716 29.7667 45.625 30 45.625C30.2333 45.625 30.8534 45.4716 31.9239 44.9264C32.9206 44.4188 34.086 43.6895 35.3231 42.8324C38.5927 40.5673 41.8293 37.897 44.2348 34.8705C46.6355 31.85 48.125 28.5832 48.125 25.0745C48.125 20.6977 44.1981 16.875 39 16.875C36.0146 16.875 33.227 18.6586 31.4864 20.9223C31.1315 21.3839 30.5823 21.6544 30 21.6544C29.4177 21.6544 28.8685 21.3839 28.5136 20.9223C26.773 18.6586 23.9854 16.875 21 16.875Z" fill="#3BC1AE"/>
</svg>
