<svg width="60" height="60" viewBox="0 0 60 60" fill="none" xmlns="http://www.w3.org/2000/svg">
<path d="M16.3637 20.4068C15.8256 20.2648 15.3784 19.8912 15.143 19.387C14.9076 18.8828 14.9084 18.3 15.145 17.7964L19.2969 8.96042C19.6063 8.30196 20.2687 7.88192 20.9962 7.88281C21.7237 7.88372 22.3851 8.3054 22.6928 8.96462L24.5244 12.8877C24.5899 12.862 24.6575 12.8397 24.7271 12.821C35.5954 9.90884 46.7668 16.3586 49.679 27.227C52.5911 38.0954 46.1414 49.2667 35.273 52.1789C24.4046 55.091 13.2333 48.6413 10.3211 37.7729C9.39505 34.3168 9.41588 30.8246 10.227 27.5778C10.4779 26.5731 11.4958 25.9621 12.5005 26.2131C13.5051 26.464 14.1161 27.4819 13.8652 28.4866C13.2044 31.1316 13.1862 33.9768 13.9433 36.8023C16.3195 45.6702 25.4345 50.9328 34.3024 48.5566C43.1703 46.1805 48.4329 37.0654 46.0567 28.1976C43.7194 19.4747 34.8618 14.2402 26.1328 16.3328L27.9808 20.291C28.2886 20.9503 28.1872 21.728 27.7207 22.2864C27.2543 22.8447 26.507 23.0828 25.8035 22.8972L16.3637 20.4068Z" fill="#3BC1AE"/>
</svg>
