<svg width="60" height="60" viewBox="0 0 60 60" fill="none" xmlns="http://www.w3.org/2000/svg">
<path d="M50.7434 10.7161H26.7835C26.0325 10.7161 25.4318 11.3168 25.4318 12.0678C25.4318 12.8187 26.0325 13.4194 26.7835 13.4194H50.7434C51.4943 13.4194 52.0951 12.8187 52.0951 12.0678C52.0951 11.3168 51.4943 10.7161 50.7434 10.7161Z" fill="#3BC1AE"/>
<path d="M17.3617 6H11.4043C9.5219 6 8 7.53191 8 9.40426V15.3617C8 17.2441 9.53191 18.766 11.4043 18.766H17.3617C19.2441 18.766 20.766 17.234 20.766 15.3617V9.40426C20.766 7.5219 19.234 6 17.3617 6ZM18.0626 15.3617C18.0626 15.7422 17.7422 16.0626 17.3617 16.0626H11.4043C11.0238 16.0626 10.7034 15.7422 10.7034 15.3617V9.40426C10.7034 9.02378 11.0238 8.70338 11.4043 8.70338H17.3617C17.7422 8.70338 18.0626 9.02378 18.0626 9.40426V15.3617Z" fill="#3BC1AE"/>
<path d="M17.3617 23.6121H11.4043C9.5219 23.6121 8 25.144 8 27.0163V32.9738C8 34.8561 9.53191 36.378 11.4043 36.378H17.3617C19.2441 36.378 20.766 34.8461 20.766 32.9738V27.0163C20.766 25.144 19.234 23.6121 17.3617 23.6121ZM18.0626 32.9838C18.0626 33.3643 17.7422 33.6847 17.3617 33.6847H11.4043C11.0238 33.6847 10.7034 33.3643 10.7034 32.9838V27.0263C10.7034 26.6459 11.0238 26.3255 11.4043 26.3255H17.3617C17.7422 26.3255 18.0626 26.6459 18.0626 27.0263V32.9838Z" fill="#3BC1AE"/>
<path d="M17.3617 41.2344H11.4043C9.5219 41.2344 8 42.7663 8 44.6386V50.5961C8 52.4784 9.53191 54.0003 11.4043 54.0003H17.3617C19.2441 54.0003 20.766 52.4684 20.766 50.5961V44.6386C20.766 42.7563 19.234 41.2344 17.3617 41.2344ZM18.0626 50.5961C18.0626 50.9766 17.7422 51.297 17.3617 51.297H11.4043C11.0238 51.297 10.7034 50.9766 10.7034 50.5961V44.6386C10.7034 44.2582 11.0238 43.9378 11.4043 43.9378H17.3617C17.7422 43.9378 18.0626 44.2582 18.0626 44.6386V50.5961Z" fill="#3BC1AE"/>
<path d="M50.423 28.6484H26.463C25.7121 28.6484 25.1113 29.2492 25.1113 30.0001C25.1113 30.7511 25.7121 31.3518 26.463 31.3518H50.423C51.1739 31.3518 51.7747 30.7511 51.7747 30.0001C51.7747 29.2492 51.1639 28.6484 50.423 28.6484Z" fill="#3BC1AE"/>
<path d="M50.423 46.2703H26.463C25.7121 46.2703 25.1113 46.871 25.1113 47.622C25.1113 48.3729 25.7121 48.9736 26.463 48.9736H50.423C51.1739 48.9736 51.7747 48.3729 51.7747 47.622C51.7747 46.871 51.1639 46.2703 50.423 46.2703Z" fill="#3BC1AE"/>
</svg>
