<svg width="60" height="60" viewBox="0 0 60 60" fill="none" xmlns="http://www.w3.org/2000/svg">
<path d="M42.7488 24.5067V18.2274C42.7488 15.2267 40.6489 12.5223 36.8361 10.6124C33.4732 8.92781 29.0476 8 24.3745 8C19.7008 8 15.275 8.92781 11.9122 10.6124C8.0997 12.5223 6 15.2267 6 18.2274V26.4092V34.5908V42.7726C6 45.7734 8.0997 48.4777 11.9124 50.3877C15.2752 52.0723 19.7009 53 24.3746 53C27.9349 53 31.329 52.4678 34.2611 51.4586C36.1989 52.4438 38.3893 53 40.7071 53C48.5882 53 55 46.576 55 38.6799C54.9999 31.4784 49.6661 25.5024 42.7488 24.5067ZM10.0837 32.959C10.6406 33.3361 11.2499 33.6924 11.9124 34.0242C15.2752 35.7088 19.7011 36.6366 24.3746 36.6366C25.1116 36.6366 25.8442 36.6122 26.57 36.5663C26.4678 37.2562 26.414 37.962 26.414 38.68C26.414 39.3482 26.461 40.0057 26.5498 40.6497C25.8323 40.701 25.1057 40.7269 24.3746 40.7269C16.1952 40.727 10.0837 37.4874 10.0837 34.5909V32.959ZM27.8931 32.3412C26.7467 32.4763 25.5676 32.545 24.3745 32.545C16.1952 32.5452 10.0837 29.3057 10.0837 26.4092V24.7773C10.6406 25.1544 11.2499 25.5107 11.9124 25.8424C15.2752 27.5271 19.7011 28.4548 24.3746 28.4548C26.8891 28.4548 29.3299 28.184 31.5741 27.6733C30.0448 28.9493 28.7853 30.5383 27.8931 32.3412ZM24.3745 12.0915C32.5536 12.0915 38.6649 15.3309 38.6649 18.2274C38.6649 21.1239 32.5536 24.3635 24.3745 24.3635C16.1952 24.3635 10.0837 21.1239 10.0837 18.2274C10.0837 15.3309 16.1952 12.0915 24.3745 12.0915ZM10.0837 42.7727V41.1409C10.6406 41.518 11.2499 41.8742 11.9124 42.2061C15.2752 43.8906 19.7009 44.8185 24.3746 44.8185C25.5017 44.8185 26.6209 44.7629 27.7195 44.6556C28.3424 46.0092 29.1697 47.2497 30.162 48.3366C28.3424 48.7098 26.3723 48.9087 24.3745 48.9087C16.1952 48.9087 10.0837 45.6691 10.0837 42.7727ZM40.7069 48.9087C35.0776 48.9087 30.4977 44.3201 30.4977 38.68C30.4977 33.0559 35.052 28.4784 40.6596 28.4526C40.6755 28.453 40.6909 28.4551 40.7069 28.4551C40.723 28.4551 40.7382 28.453 40.7543 28.4526C46.3619 28.4784 50.9162 33.0559 50.9162 38.68C50.9162 44.3201 46.3363 48.9087 40.7069 48.9087Z" fill="#3BC1AE"/>
</svg>
