<svg width="60" height="60" viewBox="0 0 60 60" fill="none" xmlns="http://www.w3.org/2000/svg">
<path d="M29.6786 6L9 12.8929V33.5714C9 44.9931 18.2569 54.25 29.6786 54.25C41.1003 54.25 50.3571 44.9931 50.3571 33.5714V12.8929L29.6786 6ZM46.4799 33.5714C46.4799 42.8499 38.957 50.3728 29.6786 50.3728C20.4001 50.3728 12.8772 42.8499 12.8772 33.5714V15.8008L29.6786 9.87723L46.4799 15.8008V33.5714Z" fill="#3BC1AE"/>
<path d="M22.4841 28.1379C22.3044 27.9574 22.0908 27.8142 21.8556 27.7164C21.6205 27.6187 21.3683 27.5684 21.1136 27.5684C20.8589 27.5684 20.6067 27.6187 20.3715 27.7164C20.1363 27.8142 19.9228 27.9574 19.7431 28.1379C19.5626 28.3176 19.4194 28.5311 19.3216 28.7663C19.2239 29.0015 19.1736 29.2537 19.1736 29.5084C19.1736 29.7631 19.2239 30.0152 19.3216 30.2504C19.4194 30.4856 19.5626 30.6992 19.7431 30.8789L26.7113 37.8471L26.8244 37.9602C26.9944 38.1305 27.1963 38.2656 27.4185 38.3578C27.6407 38.4499 27.8789 38.4974 28.1195 38.4974C28.3601 38.4974 28.5983 38.4499 28.8206 38.3578C29.0428 38.2656 29.2447 38.1305 29.4146 37.9602L41.4502 25.9246C41.6205 25.7547 41.7556 25.5528 41.8477 25.3306C41.9399 25.1083 41.9874 24.8701 41.9874 24.6295C41.9874 24.3889 41.9399 24.1507 41.8477 23.9285C41.7556 23.7063 41.6205 23.5044 41.4502 23.3344L41.2994 23.1836C41.1295 23.0134 40.9276 22.8783 40.7054 22.7861C40.4831 22.6939 40.2449 22.6465 40.0043 22.6465C39.7637 22.6465 39.5255 22.6939 39.3033 22.7861C39.081 22.8783 38.8792 23.0134 38.7092 23.1836L28.1168 33.7706L22.4841 28.1379Z" fill="#3BC1AE"/>
</svg>
